<svg width="480" height="546" viewBox="0 0 480 546" fill="none" xmlns="http://www.w3.org/2000/svg">
<g clip-path="url(#clip0)">
<path d="M256.721 474.618C379.92 474.618 479.792 368.371 479.792 237.309C479.792 106.247 379.92 0 256.721 0C133.523 0 33.6504 106.247 33.6504 237.309C33.6504 368.371 133.523 474.618 256.721 474.618Z" fill="#F2F2F2"/>
<path d="M479.801 449.223C479.801 454.095 375.848 480.5 247.615 480.5C119.382 480.5 15.4287 454.095 15.4287 449.223C15.4287 444.351 119.382 452.431 247.615 452.431C375.848 452.431 479.801 444.351 479.801 449.223Z" fill="#3F3D56"/>
<path opacity="0.1" d="M479.801 449.223C479.801 454.095 375.848 480.5 247.615 480.5C119.382 480.5 15.4287 454.095 15.4287 449.223C15.4287 444.351 119.382 452.431 247.615 452.431C375.848 452.431 479.801 444.351 479.801 449.223Z" fill="black"/>
<path d="M247.615 458.045C375.848 458.045 479.801 454.095 479.801 449.223C479.801 444.351 375.848 440.401 247.615 440.401C119.382 440.401 15.4287 444.351 15.4287 449.223C15.4287 454.095 119.382 458.045 247.615 458.045Z" fill="#3F3D56"/>
<path d="M469.446 446.817V367.422" stroke="#3F3D56" stroke-width="2" stroke-miterlimit="10"/>
<path d="M469.446 378.65C475.275 378.65 480 373.623 480 367.422C480 361.221 475.275 356.195 469.446 356.195C463.617 356.195 458.892 361.221 458.892 367.422C458.892 373.623 463.617 378.65 469.446 378.65Z" fill="#3F3D56"/>
<path d="M469.446 416.355C469.446 416.355 467.938 381.858 437.03 385.867L469.446 416.355Z" fill="#3F3D56"/>
<path d="M42.9697 452.736V191.488" stroke="#3F3D56" stroke-width="2" stroke-miterlimit="10"/>
<path d="M42.9695 202.591C48.7982 202.591 53.5234 197.564 53.5234 191.363C53.5234 185.162 48.7982 180.135 42.9695 180.135C37.1407 180.135 32.4155 185.162 32.4155 191.363C32.4155 197.564 37.1407 202.591 42.9695 202.591Z" fill="#3F3D56"/>
<path d="M10.5539 394.192C16.3827 394.192 21.1079 389.165 21.1079 382.965C21.1079 376.764 16.3827 371.737 10.5539 371.737C4.72515 371.737 0 376.764 0 382.965C0 389.165 4.72515 394.192 10.5539 394.192Z" fill="#3F3D56"/>
<path d="M42.9693 248.714C42.9693 248.714 41.4616 214.217 10.5537 218.226L42.9693 248.714Z" fill="#3F3D56"/>
<path d="M42.9693 346.51C42.9693 346.51 41.4616 312.013 10.5537 316.022L42.9693 346.51Z" fill="#3F3D56"/>
<path d="M42.9693 449.65C42.9693 449.65 49.754 386.173 10.5537 382.965" stroke="#3F3D56" stroke-width="2" stroke-miterlimit="10"/>
<path d="M75.3899 394.192C81.2186 394.192 85.9438 389.165 85.9438 382.965C85.9438 376.764 81.2186 371.737 75.3899 371.737C69.5611 371.737 64.8359 376.764 64.8359 382.965C64.8359 389.165 69.5611 394.192 75.3899 394.192Z" fill="#3F3D56"/>
<path d="M42.974 449.65C42.974 449.65 36.1893 386.173 75.3896 382.965" stroke="#3F3D56" stroke-width="2" stroke-miterlimit="10"/>
<path d="M76.0329 288.874C81.8617 288.874 86.5868 283.847 86.5868 277.646C86.5868 271.445 81.8617 266.418 76.0329 266.418C70.2042 266.418 65.479 271.445 65.479 277.646C65.479 283.847 70.2042 288.874 76.0329 288.874Z" fill="#3F3D56"/>
<path d="M43.6171 344.331C43.6171 344.331 36.8324 280.854 76.0327 277.646" stroke="#3F3D56" stroke-width="2" stroke-miterlimit="10"/>
<path d="M388.271 445.213V286.423" stroke="#3F3D56" stroke-width="2" stroke-miterlimit="10"/>
<path d="M388.271 297.651C394.099 297.651 398.825 292.624 398.825 286.423C398.825 280.222 394.099 275.196 388.271 275.196C382.442 275.196 377.717 280.222 377.717 286.423C377.717 292.624 382.442 297.651 388.271 297.651Z" fill="#3F3D56"/>
<path d="M388.271 332.148C388.271 332.148 389.778 297.651 420.686 301.661L388.271 332.148Z" fill="#3F3D56"/>
<path d="M388.271 442.127C388.271 442.127 381.486 378.65 420.687 375.442" stroke="#3F3D56" stroke-width="2" stroke-miterlimit="10"/>
<path d="M420.686 386.669C426.515 386.669 431.24 381.643 431.24 375.442C431.24 369.241 426.515 364.214 420.686 364.214C414.857 364.214 410.132 369.241 410.132 375.442C410.132 381.643 414.857 386.669 420.686 386.669Z" fill="#3F3D56"/>
<path d="M375.65 165.501C398.372 165.501 416.792 145.905 416.792 121.732C416.792 97.5591 398.372 77.9632 375.65 77.9632C352.927 77.9632 334.507 97.5591 334.507 121.732C334.507 145.905 352.927 165.501 375.65 165.501Z" fill="#FF6584"/>
<path d="M307.762 426.018C335.81 426.018 358.547 401.83 358.547 371.991C358.547 342.153 335.81 317.964 307.762 317.964C279.714 317.964 256.976 342.153 256.976 371.991C256.976 401.83 279.714 426.018 307.762 426.018Z" fill="#2F2E41"/>
<path d="M315.476 443.799H330.904V414.392H315.476V443.799Z" fill="#2F2E41"/>
<path d="M284.619 443.799H300.047V414.392H284.619V443.799Z" fill="#2F2E41"/>
<path d="M291.53 451.319C297.679 447.542 301.585 442.491 300.254 440.038C298.922 437.585 292.858 438.658 286.708 442.435C280.559 446.212 276.653 451.262 277.984 453.716C279.316 456.169 285.38 455.096 291.53 451.319Z" fill="#2F2E41"/>
<path d="M321.744 451.319C327.893 447.542 331.799 442.491 330.467 440.038C329.136 437.585 323.072 438.658 316.922 442.435C310.773 446.212 306.867 451.262 308.198 453.716C309.53 456.169 315.594 455.096 321.744 451.319Z" fill="#2F2E41"/>
<path d="M306.476 376.778C316.062 376.778 323.833 368.511 323.833 358.313C323.833 348.116 316.062 339.848 306.476 339.848C296.89 339.848 289.119 348.116 289.119 358.313C289.119 368.511 296.89 376.778 306.476 376.778Z" fill="white"/>
<path d="M300.564 356.604C303.76 356.604 306.35 353.848 306.35 350.449C306.35 347.049 303.76 344.294 300.564 344.294C297.369 344.294 294.779 347.049 294.779 350.449C294.779 353.848 297.369 356.604 300.564 356.604Z" fill="#3F3D56"/>
<path d="M357.026 321.748C361.126 302.211 348.018 282.469 327.747 277.654C307.477 272.839 287.72 284.773 283.619 304.31C279.518 323.847 292.953 331.053 313.223 335.868C333.494 340.683 352.925 341.285 357.026 321.748Z" fill="#3901F9"/>
<path d="M286.611 364.049C288.343 359.743 279.296 351.493 266.403 345.623C253.51 339.753 241.654 338.484 239.922 342.79C238.189 347.096 247.237 355.345 260.13 361.216C273.022 367.086 284.878 368.354 286.611 364.049Z" fill="#2F2E41"/>
<path d="M381.753 400.295C383.486 395.989 374.438 387.739 361.545 381.869C348.653 375.999 336.797 374.73 335.064 379.036C333.332 383.342 342.379 391.591 355.272 397.462C368.165 403.332 380.021 404.6 381.753 400.295Z" fill="#2F2E41"/>
<path d="M317.922 395.585C317.922 398.85 316.702 401.981 314.532 404.29C312.362 406.598 309.419 407.895 306.35 407.895C303.281 407.895 300.338 406.598 298.168 404.29C295.998 401.981 294.779 398.85 294.779 395.585C294.779 388.787 299.959 387.379 306.35 387.379C312.741 387.379 317.922 388.787 317.922 395.585Z" fill="white"/>
<path d="M247.231 355.86V276.465" stroke="#3901F9" stroke-width="2" stroke-miterlimit="10"/>
<path d="M247.231 287.693C253.06 287.693 257.785 282.666 257.785 276.465C257.785 270.264 253.06 265.238 247.231 265.238C241.402 265.238 236.677 270.264 236.677 276.465C236.677 282.666 241.402 287.693 247.231 287.693Z" fill="#3901F9"/>
<path d="M247.231 325.398C247.231 325.398 245.723 290.901 214.815 294.91L247.231 325.398Z" fill="#3901F9"/>
<path d="M148.006 301.5L152.097 311.758H155.72L150.578 285.77C150.578 269.09 143.01 254.995 127.33 254.995H127.33C122.072 254.995 117.03 257.217 113.312 261.172C109.595 265.127 107.506 270.491 107.506 276.084V301.571C107.506 302.909 107.754 304.233 108.235 305.469C108.716 306.705 109.422 307.828 110.311 308.774C111.2 309.72 112.256 310.47 113.418 310.982C114.579 311.494 115.825 311.758 117.082 311.758H145.194L148.006 301.5Z" fill="#2F2E41"/>
<path d="M165.114 404.663C165.114 404.663 218.471 397.824 224.9 410.134C231.328 422.444 226.828 432.703 218.471 438.858C210.114 445.013 163.829 473.052 163.829 473.052L159.971 479.891L151.614 478.523L143.257 470.317L147.114 462.794C147.114 462.794 179.257 442.277 179.9 436.806C179.9 436.806 150.329 451.168 147.114 448.432C143.9 445.697 107.9 432.703 113.686 425.18C119.472 417.657 134.257 406.715 134.257 406.715L165.114 404.663Z" fill="#2F2E41"/>
<path opacity="0.1" d="M165.114 404.663C165.114 404.663 218.471 397.824 224.9 410.134C231.328 422.444 226.828 432.703 218.471 438.858C210.114 445.013 163.829 473.052 163.829 473.052L159.971 479.891L151.614 478.523L143.257 470.317L147.114 462.794C147.114 462.794 179.257 442.277 179.9 436.806C179.9 436.806 150.329 451.168 147.114 448.432C143.9 445.697 107.9 432.703 113.686 425.18C119.472 417.657 134.257 406.715 134.257 406.715L165.114 404.663Z" fill="black"/>
<path d="M158.043 473.736C158.043 473.736 167.686 471.684 165.757 478.523C163.829 485.362 162.543 499.04 165.757 502.459C168.972 505.879 179.257 520.924 168.972 522.292C158.686 523.66 147.757 509.982 147.757 509.982C147.757 509.982 140.686 488.098 135.543 486.046C130.4 483.994 125.258 475.788 127.829 473.736C130.4 471.684 145.829 458.69 147.115 459.374C148.4 460.058 147.757 467.581 147.757 467.581C147.757 467.581 152.9 476.471 158.043 473.736Z" fill="#2F2E41"/>
<path d="M159.007 327.726L182.793 345.507C182.793 345.507 200.793 325.674 200.793 314.048C200.793 302.422 210.435 280.538 214.935 289.428C219.435 298.319 209.793 319.519 209.793 319.519L191.793 364.656C191.793 364.656 181.507 366.708 175.721 361.92C169.936 357.133 153.864 347.559 153.864 347.559L159.007 327.726Z" fill="#FFB9B9"/>
<path d="M135.543 297.977C145.484 297.977 153.543 289.404 153.543 278.828C153.543 268.252 145.484 259.679 135.543 259.679C125.602 259.679 117.543 268.252 117.543 278.828C117.543 289.404 125.602 297.977 135.543 297.977Z" fill="#FFB9B9"/>
<path d="M144.864 292.164C144.864 292.164 138.436 309.945 141.007 314.048C143.579 318.152 146.793 318.152 149.364 319.519C150.65 320.203 164.15 325.674 164.15 329.778C164.088 332.414 163.426 334.995 162.221 337.3L160.293 348.926L144.221 359.869L123.007 357.133L106.936 347.559C106.936 347.559 104.364 322.255 111.436 318.152C118.507 314.048 126.864 304.474 126.222 301.054C125.579 297.635 124.936 289.428 124.936 289.428L144.864 292.164Z" fill="#FFB9B9"/>
<path d="M171.864 334.565C171.864 334.565 162.221 344.823 162.221 346.191C162.221 347.559 168.65 353.714 164.15 361.92C159.65 370.127 159.65 390.644 159.65 390.644L144.221 394.063L115.293 391.327L110.793 344.139C110.793 344.139 122.364 346.191 124.936 348.243C127.507 350.294 134.579 345.507 139.721 345.507C144.864 345.507 159.65 342.771 159.65 342.771L158.364 337.3L163.507 327.726L171.864 334.565Z" fill="#3901F9"/>
<path d="M135.543 407.399C135.543 407.399 200.471 376.624 205.614 396.457C210.757 416.289 211.4 464.162 211.4 464.162C211.4 464.162 214.614 496.988 218.471 500.408C222.328 503.827 218.471 514.085 218.471 514.085L208.828 517.505L199.828 513.401L195.971 502.459C195.971 502.459 194.685 477.839 189.543 465.529C184.4 453.219 184.4 424.496 185.043 423.128C185.043 423.128 159.971 455.955 135.543 453.903C111.114 451.852 107.579 446.039 107.579 446.039C107.579 446.039 119.471 407.399 135.543 407.399Z" fill="#2F2E41"/>
<path d="M214.614 503.827C214.614 503.827 217.186 494.253 222.971 501.775C228.757 509.298 255.114 520.924 255.757 522.292C256.4 523.66 267.971 531.182 254.471 541.441C240.971 551.699 222.971 541.441 222.971 541.441C222.971 541.441 207.543 535.97 203.686 536.654C199.829 537.337 192.114 533.234 191.471 529.815C190.829 526.395 192.347 496.334 195.766 499.397C199.186 502.459 203.043 510.666 203.043 510.666C203.043 510.666 215.9 514.085 214.614 503.827Z" fill="#2F2E41"/>
<path d="M157.4 388.934C157.4 388.934 160.936 388.592 160.293 397.482C160.293 397.482 138.115 404.663 134.257 410.818C130.4 416.973 113.686 435.438 111.115 448.432C111.115 448.432 92.4719 443.645 102.758 409.451L114.851 381.558C114.851 381.558 122.043 397.141 157.4 388.934Z" fill="#2F2E41"/>
<path d="M142.269 405.555L120.436 395.431C120.436 395.431 110.15 372.863 110.15 361.92C110.026 355.624 109.57 349.34 108.784 343.098C108.298 339.172 108.722 335.18 110.018 331.468C111.314 327.755 113.443 324.437 116.22 321.8C118.49 319.688 121.039 318.152 123.65 318.152C123.65 318.152 131.365 333.197 130.079 346.875C128.793 360.553 132.008 381.069 132.008 381.069L161.056 397.608" fill="#FFB9B9"/>
<path opacity="0.1" d="M142.269 405.555L120.436 395.431C120.436 395.431 110.15 372.863 110.15 361.92C110.15 356.221 132.65 339.352 131.365 353.03C130.079 366.708 132.007 381.069 132.007 381.069L161.056 397.608" fill="black"/>
<path d="M132.008 351.662L129.958 360.894L118.508 366.708H108.865L104.365 344.823C104.365 344.823 112.31 343.035 116.373 345.297C120.436 347.559 129.978 348.1 129.978 348.1L132.008 351.662Z" fill="#3901F9"/>
<path d="M142.673 255.91C139.185 254.969 130.915 254.995 129.705 254.995C126.79 254.995 123.903 255.606 121.21 256.793C118.517 257.98 116.07 259.719 114.008 261.912C111.947 264.105 110.312 266.708 109.196 269.574C108.081 272.439 107.507 275.51 107.507 278.611L99.1494 311.758H115.416L118.435 299.448L122.721 311.758H130.91L131.614 304.361L134.385 311.758H143.506C136.675 295.314 133.041 280.326 142.016 271.075C148.077 271.953 153.188 270.226 154.021 266.731C154.981 262.703 149.9 257.859 142.673 255.91Z" fill="#2F2E41"/>
</g>
<defs>
<clipPath id="clip0">
<rect width="480" height="546" fill="white"/>
</clipPath>
</defs>
</svg>
