<svg xmlns="http://www.w3.org/2000/svg" viewBox="0 0 1577.5 1714"><defs><style>.cls-1{isolation:isolate;}.cls-2{fill:#6cbcfc;}.cls-3{fill:#ffb3c5;}.cls-13,.cls-4{fill:#ea94ad;}.cls-4{opacity:0.2;mix-blend-mode:multiply;}.cls-5{fill:#72dffd;}.cls-6{fill:#472a6a;}.cls-7{fill:#e5f1ff;}.cls-8{fill:#fff;}.cls-10,.cls-9{fill:#daeef7;}.cls-9{opacity:0.3;}.cls-11{fill:#31dae7;}.cls-12{fill:#f36b80;}.cls-14{fill:#5c407b;}.cls-15{fill:#8b5dd0;}.cls-16{fill:#b984f9;}</style></defs><g class="cls-1"><g id="Layer_2" data-name="Layer 2"><g id="Layer_1-2" data-name="Layer 1"><path class="cls-2" d="M744.75,1627.52s-647.11-47.6-724.93-364S114.46,904,173.35,726.79-34.87,445,143.91,203.9,586.33-41.45,697.43,72.13s239.17-69.41,445.4,33.65,256.71,311.31,191.51,474,202.15,318.2,235.68,502.61S1300.92,1708.83,744.75,1627.52Z"/><path class="cls-3" d="M89.07,1714H476.84L509,1627.4a122.43,122.43,0,0,1,64.53-68.83c28.08-12.71,65.88-35.78,102.52-76.91,71.3-80,109.14-165.88,109.14-165.88l-240.32-1.18s21.63-134.43-97.82-313a101.07,101.07,0,0,1-16.6-64.94l11.32-130.22s81.17-90.7,31.37-203.23c0,0-47.62-65.93-66.51-41.8,0,0-143.84,342.53-156.94,393.46s-30.56,82.94-13.1,243c4.63,42.37,6.29,77.71,6.23,106.77a378.9,378.9,0,0,1-36.42,161.26Z"/><path class="cls-4" d="M450.74,1491.81c-36-40-86-33.65-138.57-51.88s-69.45-149.65-69.45-149.65v0c.08,5,.12,9.78.11,14.42a378.9,378.9,0,0,1-36.42,161.26L89.07,1714H476.84L509,1627.4a122.43,122.43,0,0,1,64.53-68.83c23.9-10.82,54.83-29.15,86.11-59.72C552.84,1543.75,486.73,1531.77,450.74,1491.81Z"/><path class="cls-5" d="M1299.28,595.81a13.39,13.39,0,0,0-16.41-9.94A19.68,19.68,0,0,0,1265,574.52a19.88,19.88,0,0,0-5.86.88,24.27,24.27,0,0,0-43.6,4.24,16.65,16.65,0,0,0-24.75,14.56,14.35,14.35,0,0,0,.08,1.61Z"/><path class="cls-5" d="M1142.83,203.52a35,35,0,0,0-42.85-26,51.49,51.49,0,0,0-61.87-27.33,63.38,63.38,0,0,0-113.84,11.08,43.47,43.47,0,0,0-64.62,38,42,42,0,0,0,.21,4.22Z"/><path class="cls-5" d="M375.14,470.15a29.25,29.25,0,0,0-35.86-21.73,43.06,43.06,0,0,0-51.78-22.87,53,53,0,0,0-95.29,9.27,36.39,36.39,0,0,0-54.08,31.8c0,1.19.06,2.37.17,3.53Z"/><path class="cls-3" d="M1002,333.07s82.13-55,100.89-18.76S996.19,478.68,996.19,478.68Z"/><path class="cls-3" d="M1002,572.59s82.13-55,100.89-18.76S996.19,718.2,996.19,718.2Z"/><path class="cls-3" d="M1002,735.77s82.13-55,100.89-18.75S996.19,881.39,996.19,881.39Z"/><path class="cls-6" d="M945.28,271.46H494.37a60.81,60.81,0,0,0-60.8,60.81V1253.8a60.81,60.81,0,0,0,60.8,60.8H945.28a60.81,60.81,0,0,0,60.8-60.8V332.27A60.81,60.81,0,0,0,945.28,271.46Z"/><path class="cls-4" d="M474.65,1046.3S393.09,1246,401,1283.7s57.41,88.23,178.84,71.4,205.36-39.32,205.36-39.32,5.07-269.44,0-283.11S561.79,922,553.2,922,474.65,1046.3,474.65,1046.3Z"/><rect class="cls-7" x="463.04" y="354.33" width="513.56" height="877.4"/><path class="cls-8" d="M824.62,326.76H615.86a5.5,5.5,0,0,1-5.5-5.5h0a5.49,5.49,0,0,1,5.5-5.49H824.62a5.49,5.49,0,0,1,5.5,5.49h0A5.5,5.5,0,0,1,824.62,326.76Z"/><path class="cls-3" d="M423.35,885.05s3.1,11.52,10.1,17.19l8.33-95.77s59.71-66.72,45.28-156.71A134.48,134.48,0,0,0,443.37,570c-13.38-11.76-28.07-19.62-36.73-8.56,0,0-67.64,161.08-114.38,278.74Z"/><circle class="cls-9" cx="719.53" cy="1274" r="25.22"/><path class="cls-10" d="M727.05,1284.51H712a3,3,0,0,1-3-3v-15a3,3,0,0,1,3-3h15a3,3,0,0,1,3,3v15A3,3,0,0,1,727.05,1284.51Zm-15-20.2a2.18,2.18,0,0,0-2.18,2.17v15a2.19,2.19,0,0,0,2.18,2.18h15a2.19,2.19,0,0,0,2.18-2.18v-15a2.18,2.18,0,0,0-2.18-2.17Z"/><rect class="cls-11" x="463.04" y="1179.83" width="513.56" height="51.9"/><rect class="cls-11" x="463.04" y="354.33" width="513.56" height="46.56"/><path class="cls-12" d="M418.8,656.05c18.69-8.6,28.45-57.23,31.94-79.09-15-15.09-33.81-28.67-44.1-15.52,0,0-14.9,35.47-35.54,85.28C385.22,654.57,404.83,662.48,418.8,656.05Z"/><path class="cls-13" d="M889.74,932.19S820.38,938,818,956.45s2.91,50.93,68.39,57.23h67.83s-20.29-56.26-19.32-58.2S889.74,932.19,889.74,932.19Z"/><path class="cls-3" d="M778.45,1207.15a18.81,18.81,0,0,0-7.33,26.06C803,1288.26,930,1507,941.4,1524.83c13.09,20.37,45.11,68.39,151.33,93.13s149.88,96,149.88,96H1570s-77.12-122.23-141.15-439.45c0,0-49.48-263.39-142.6-254.65,0,0-56.76-59.67-112-48,0,0-104.77-62.58-164.43-62.58L866.48,739.94c-14.18-16.76-39.18-20-56.62-6.7-5.61,4.29-9.89,10-11.07,17.45-4.36,27.65,32,97.5,90.22,181.9s202.27,352.14,139.69,470c0,0-64-48-119.32-125.14C863.08,1212.87,808.61,1191.15,778.45,1207.15Z"/><path class="cls-13" d="M1010.32,909.37A598.72,598.72,0,0,1,1064,961.85a653.08,653.08,0,0,1,47.41,58.37c13.42,18.57,29.13,43.58,39.13,64.37,13.55,27.49,19.63,47.88,23.65,71.3l-.43.09c-5.13-24.37-14.75-47.62-26.27-69.81-7.94-15.62-23.56-41.46-39.62-63.41-14.49-20.31-30.15-39.77-46.47-58.65-15.37-17.73-34.71-38.48-51.37-54.42Z"/><path class="cls-13" d="M1173.28,971.42c15.48,7.92,29.27,19,41.47,31.44,22.93,23.11,41.71,54.8,51.08,90.46,3.76,15.84,6.19,26.56,6.59,51.61l-.44,0a254.43,254.43,0,0,0-9.43-50.67c-10.54-34.25-27.07-63.55-50.34-89.1-11-12-25.28-24.93-39.14-33.39Z"/><path class="cls-13" d="M1285.12,1018.73c13.68,10.34,27.48,28.61,34.19,41,15.51,26.64,22.85,54.93,24.13,85.2l-.44.06c-5.82-33.72-11.56-52.86-27.3-83.29-5.13-10.25-18.36-30.35-30.83-42.7Z"/><path class="cls-12" d="M844.54,1274.89c2.9-14.73-14.27-38.09-29.85-55.72a36.2,36.2,0,0,0-38.58-10.51,18.83,18.83,0,0,0-5,24.55c8.58,14.8,24,41.41,42.23,72.78C827,1299,841.85,1288.53,844.54,1274.89Z"/><path class="cls-12" d="M858.29,806.41c8.28-1.66,45.84-14.14,43.54-21h0l-37.05-43.78a42.17,42.17,0,0,0-28.23-14.75h0l-.18,0c-.3,0-1-.08-1.93-.08-5,0-17.19,1.42-19.88,14.87-2.66,13.28,19.32,45.56,29,59A14.59,14.59,0,0,0,858.29,806.41Z"/><path class="cls-14" d="M200.8,1485.19c41,25.2,173.12,100.58,309.71,116.65,8,.94,13.63,8.28,11.26,14.61l-23.86,63.92c-1.58,4.23-6.33,6.69-11.67,6.05C446,1681.53,279.9,1656.53,163,1566.13c-4-3.08-5.65-7.75-4.17-11.73l24.36-65.23C185.52,1483,194.12,1481.08,200.8,1485.19Z"/><path class="cls-15" d="M189.72,1546.64l-2.27-.85a3.64,3.64,0,0,1-2.15-4.7l8-21.5a3.67,3.67,0,0,1,4.71-2.15l2.27.85a3.65,3.65,0,0,1,2.15,4.71l-8,21.49A3.66,3.66,0,0,1,189.72,1546.64Z"/><rect class="cls-15" x="213.57" y="1532.05" width="9.74" height="30.26" rx="3.66" transform="translate(554.89 21.31) rotate(20.47)"/><rect class="cls-15" x="238.18" y="1547.09" width="9.74" height="30.26" rx="3.66" transform="translate(561.71 13.65) rotate(20.47)"/><rect class="cls-15" x="263.51" y="1559.32" width="9.74" height="30.26" rx="3.66" transform="translate(567.56 5.56) rotate(20.47)"/><rect class="cls-15" x="288.42" y="1573.54" width="9.74" height="30.26" rx="3.66" transform="matrix(0.94, 0.35, -0.35, 0.94, 574.15, -2.24)"/><rect class="cls-15" x="314.43" y="1584.81" width="9.74" height="30.26" rx="3.66" transform="translate(579.72 -10.63) rotate(20.47)"/><rect class="cls-15" x="330.7" y="1604.98" width="30.26" height="9.74" rx="3.66" transform="translate(-1283.28 1370.7) rotate(-69.52)"/><rect class="cls-15" x="368" y="1603.25" width="9.74" height="30.26" rx="3.66" transform="translate(589.61 -28.19) rotate(20.47)"/><path class="cls-15" d="M396.85,1638.57l-2.28-.85a3.66,3.66,0,0,1-2.14-4.71l8-21.49a3.66,3.66,0,0,1,4.71-2.15l2.27.85a3.65,3.65,0,0,1,2.15,4.7l-8,21.5A3.65,3.65,0,0,1,396.85,1638.57Z"/><rect class="cls-15" x="413.27" y="1626.67" width="30.26" height="9.74" rx="3.66" transform="matrix(0.35, -0.94, 0.94, 0.35, -1249.99, 1462.8)"/><rect class="cls-15" x="451.97" y="1621.18" width="9.74" height="30.26" rx="3.66" transform="matrix(0.94, 0.35, -0.35, 0.94, 601.12, -56.44)"/><path class="cls-15" d="M481.17,1655.58l-2.28-.85a3.66,3.66,0,0,1-2.14-4.71l8-21.5a3.66,3.66,0,0,1,4.71-2.14l2.27.84a3.67,3.67,0,0,1,2.15,4.71l-8,21.5A3.66,3.66,0,0,1,481.17,1655.58Z"/><path class="cls-16" d="M281.87,1633.18l.12-.3a6.38,6.38,0,0,1-1.29-.31l-32.33-12.07a6.45,6.45,0,0,1-3.45-8.42L274.06,1534a6.46,6.46,0,0,1,8.13-4.09L314.51,1542a6,6,0,0,1,3.69,4.24c2.54,1.11,5.09,2.22,7.68,3.32.86-6.56-2.51-12.94-8.52-15.19L285,1522.29c-7.08-2.64-15.17,1.43-18,9.09l-29.15,78.07c-2.86,7.65.58,16,7.66,18.67l32.33,12.07a13.6,13.6,0,0,0,13.95-3Q286.85,1635.23,281.87,1633.18Z"/><path class="cls-8" d="M274.78,1571.23,260.72,1566a5.28,5.28,0,0,0-3.68,9.86l14.06,5.25Z"/><path class="cls-4" d="M1242.61,1714H1570s-50.57-80.15-103.8-279c-23.36,146.46-152.24,138-203.39,146.14-58.89,9.35-287.5-38.31-319.53-53.33,14.24,21.74,48,66.58,149.43,90.2C1199,1642.7,1242.61,1714,1242.61,1714Z"/><path class="cls-4" d="M906.32,959.14c64.19,103.15,179.37,340.08,122.38,443.46l37.83,37.33s95.55-105.86-56.51-339.32A1556.54,1556.54,0,0,0,906.32,959.14Z"/><path class="cls-7" d="M20.09,659.05c-13.32-67.4,87.21-90,103.39-23.28a103.19,103.19,0,0,1,2.7,20.3C129.31,736.32,80.77,823.67,29.1,809s-21.93-69.51-6.27-102.4C30.14,691.22,23.52,676.43,20.09,659.05Z"/><path class="cls-7" d="M1482.48,512.05c-29.45-10.28-61.7,5.4-72.78,34.56-8.62,22.67-18.49,54.3-19.38,82.12-1.62,50.18,18.34,157.88,94.65,184.47s121.83-43.55,71-124.72C1534.3,653.8,1545.13,533.92,1482.48,512.05Z"/><path class="cls-5" d="M1104.81,501.5a27.69,27.69,0,0,1,33.94-20.56,40.72,40.72,0,0,1,49-21.64,50.2,50.2,0,0,1,90.17,8.77,34.43,34.43,0,0,1,51.18,30.09c0,1.13-.06,2.24-.17,3.34Z"/><path class="cls-5" d="M367,120.64a19.81,19.81,0,0,1,19.29-15.35,20.09,20.09,0,0,1,5,.63,29.13,29.13,0,0,1,35.06-15.48,35.92,35.92,0,0,1,64.53,6.27,24.64,24.64,0,0,1,36.62,21.54,23.76,23.76,0,0,1-.12,2.39Z"/><path class="cls-8" d="M1215.43,848.54s-3.37,33.25-29.62,35.56c26.25,2.3,29.62,35.56,29.62,35.56s3.37-33.26,29.62-35.56C1218.8,881.79,1215.43,848.54,1215.43,848.54Z"/><path class="cls-8" d="M1169.26,321.8s-2.42,23.86-21.26,25.51c18.84,1.65,21.26,25.52,21.26,25.52s2.42-23.87,21.25-25.52C1171.68,345.66,1169.26,321.8,1169.26,321.8Z"/><path class="cls-8" d="M353.11,193.9s-1.52,15-13.35,16c11.83,1,13.35,16,13.35,16s1.53-15,13.36-16C354.64,208.91,353.11,193.9,353.11,193.9Z"/><path class="cls-8" d="M256.64,602.73S253.26,636,227,638.29c26.24,2.3,29.62,35.56,29.62,35.56s3.37-33.26,29.62-35.56C260,636,256.64,602.73,256.64,602.73Z"/><path class="cls-8" d="M1284.87,756.52s-2.23,22-19.6,23.53c17.37,1.52,19.6,23.52,19.6,23.52s2.23-22,19.59-23.52C1287.1,778.53,1284.87,756.52,1284.87,756.52Z"/><path class="cls-8" d="M1229.46,258.14s-1.22,12-10.69,12.83c9.47.83,10.69,12.83,10.69,12.83s1.21-12,10.69-12.83C1230.67,270.14,1229.46,258.14,1229.46,258.14Z"/><path class="cls-8" d="M311.85,524.92s-2.23,22-19.59,23.52C309.62,550,311.85,572,311.85,572s2.23-22,19.6-23.53C314.08,546.92,311.85,524.92,311.85,524.92Z"/><path class="cls-8" d="M437.68,162.12s-1.17,11.51-10.25,12.31c9.08.79,10.25,12.3,10.25,12.3s1.17-11.51,10.25-12.3C438.85,173.63,437.68,162.12,437.68,162.12Z"/><path class="cls-8" d="M1183.42,690.46s-1,9.84-8.77,10.53c7.77.68,8.77,10.52,8.77,10.52s1-9.84,8.76-10.52C1184.42,700.3,1183.42,690.46,1183.42,690.46Z"/><path class="cls-8" d="M280,732.61s-1,9.84-8.77,10.52c7.77.69,8.77,10.53,8.77,10.53s1-9.84,8.76-10.53C280.94,742.45,280,732.61,280,732.61Z"/><path class="cls-8" d="M371.14,274.45s-2,19.44-17.31,20.79c15.34,1.34,17.31,20.78,17.31,20.78s2-19.44,17.31-20.78C373.11,293.89,371.14,274.45,371.14,274.45Z"/></g></g></g></svg>