<svg width="670" height="474" viewBox="0 0 670 474" fill="none" xmlns="http://www.w3.org/2000/svg">
<g clip-path="url(#clip0)">
<path d="M69.989 134.538H55.4614V154.778H69.989V134.538Z" fill="#3F3D56"/>
<path d="M391.846 418.19H377.318V438.43H391.846V418.19Z" fill="#3F3D56"/>
<path d="M611.897 225.466V209.897H593.011V225.466H611.897Z" fill="#3F3D56"/>
<path d="M563.27 435.911C594.962 435.911 620.654 408.377 620.654 374.411C620.654 340.445 594.962 312.911 563.27 312.911C531.578 312.911 505.886 340.445 505.886 374.411C505.886 408.377 531.578 435.911 563.27 435.911Z" fill="#2F2E41"/>
<path d="M585.433 458.629L602.588 455.301L597.024 416.913L579.869 420.241L585.433 458.629Z" fill="#2F2E41"/>
<path d="M551.125 459.836L568.279 456.508L562.715 423.569L545.561 426.897L551.125 459.836Z" fill="#2F2E41"/>
<path d="M560.231 466.768C566.354 461.211 569.741 454.711 567.796 452.251C565.852 449.79 559.312 452.3 553.19 457.857C547.067 463.415 543.68 469.914 545.624 472.375C547.569 474.836 554.108 472.326 560.231 466.768Z" fill="#2F2E41"/>
<path d="M593.825 465.7C599.948 460.143 603.335 453.643 601.39 451.182C599.446 448.722 592.906 451.232 586.783 456.789C580.661 462.346 577.274 468.846 579.218 471.307C581.162 473.767 587.702 471.257 593.825 465.7Z" fill="#2F2E41"/>
<path d="M559.253 380.387C570.084 380.387 578.865 370.976 578.865 359.368C578.865 347.759 570.084 338.349 559.253 338.349C548.421 338.349 539.64 347.759 539.64 359.368C539.64 370.976 548.421 380.387 559.253 380.387Z" fill="white"/>
<path d="M551.192 358.84C554.803 358.84 557.73 355.703 557.73 351.834C557.73 347.964 554.803 344.827 551.192 344.827C547.582 344.827 544.655 347.964 544.655 351.834C544.655 355.703 547.582 358.84 551.192 358.84Z" fill="#3F3D56"/>
<path d="M608.538 307.506C609.401 284.737 591.091 265.453 567.642 264.432C544.193 263.411 524.485 281.041 523.622 303.809C522.759 326.577 539.059 331.75 562.507 332.771C585.956 333.792 607.675 330.274 608.538 307.506Z" fill="#3901F9"/>
<path d="M538.251 370.077C539.362 364.88 527.742 357.592 512.296 353.797C496.851 350.003 483.429 351.14 482.317 356.337C481.206 361.533 492.826 368.822 508.272 372.616C523.717 376.41 537.139 375.274 538.251 370.077Z" fill="#2F2E41"/>
<path d="M650.893 390.153C652.004 384.956 640.384 377.668 624.939 373.873C609.493 370.079 596.071 371.216 594.96 376.412C593.848 381.609 605.468 388.898 620.914 392.692C636.359 396.486 649.781 395.349 650.893 390.153Z" fill="#2F2E41"/>
<path d="M579.031 398.647C579.338 400.459 579.309 402.317 578.945 404.116C578.582 405.916 577.892 407.621 576.913 409.134C575.935 410.647 574.688 411.939 573.244 412.935C571.799 413.932 570.186 414.613 568.496 414.941C566.805 415.269 565.071 415.237 563.393 414.846C561.714 414.456 560.124 413.715 558.712 412.665C557.301 411.615 556.097 410.278 555.168 408.73C554.239 407.181 553.604 405.451 553.299 403.64C552.013 396.024 557.507 393.33 564.612 391.951C571.718 390.573 577.744 391.032 579.031 398.647Z" fill="white"/>
<path d="M265.017 415.15L263.022 442.945L282.307 445.083L277.652 411.587L265.017 415.15Z" fill="#FFB9B9"/>
<path d="M197.827 162.035H197.827C214.265 167.463 223.034 187.714 217.412 207.265L210.27 232.105L203.141 229.751L201.661 219.184L200.046 228.729L154.228 213.597L152.882 203.991L151.414 212.667L146.256 210.964L151.864 191.46C158.333 168.961 178.911 155.787 197.827 162.035Z" fill="#2F2E41"/>
<path d="M172.297 236.59C170.811 236.326 169.29 236.398 167.831 236.802C166.373 237.205 165.009 237.931 163.829 238.934C162.648 239.936 161.676 241.192 160.975 242.621C160.274 244.05 159.86 245.62 159.76 247.231C159.473 251.537 160.86 256.579 167.089 260.313C180.395 268.288 209.248 285.675 209.248 285.675L264.298 297.005C264.298 297.005 292.117 320.796 295.602 307.265C299.088 293.733 269.206 285.472 269.206 285.472L218.631 271.571L186.404 246.589C186.404 246.589 180.499 238.142 172.297 236.59Z" fill="#FFB9B9"/>
<path d="M154.701 292.024L160.234 308.736L193.434 300.111L184.882 287.711L154.701 292.024Z" fill="#FFB9B9"/>
<path d="M65.9176 449.173L40.7668 446.477L58.3725 428.148L70.9482 437.313L65.9176 449.173Z" fill="#FFB9B9"/>
<path d="M192.013 217.966C203.421 217.966 212.669 208.054 212.669 195.827C212.669 183.6 203.421 173.689 192.013 173.689C180.604 173.689 171.356 183.6 171.356 195.827C171.356 208.054 180.604 217.966 192.013 217.966Z" fill="#FFB9B9"/>
<path d="M175.828 199.298C175.828 199.298 164.258 213.854 158.222 216.01C152.186 218.167 137.095 238.653 144.641 252.13C152.186 265.608 179.852 248.896 179.852 248.896L178.846 235.418C178.846 235.418 190.416 213.854 192.931 212.237C195.446 210.619 175.828 199.298 175.828 199.298Z" fill="#FFB9B9"/>
<path d="M173.817 225.327C166.126 212.916 148.286 215.137 143.861 229.26C143.782 229.511 143.706 229.767 143.635 230.027C139.61 244.583 145.647 269.382 145.647 269.382L154.701 298.493C154.701 298.493 178.343 286.633 195.446 306.58L192.931 286.094C192.931 286.094 199.973 268.843 190.919 256.443C185.156 248.552 179.801 234.984 173.817 225.327Z" fill="#575A89"/>
<path d="M54.8511 445.399L53.8451 453.486C53.8451 453.486 20.6456 446.478 13.6033 452.947C6.56101 459.416 6.56101 463.729 1.02777 459.416C-1.32386 457.583 0.685707 453.121 3.77423 448.596C8.66546 441.495 15.0933 435.775 22.5046 431.928C30.8063 427.572 42.2756 421.242 42.2756 419.522C42.2756 416.827 51.33 408.74 54.8511 413.053C58.3723 417.366 64.9116 429.226 64.9116 429.226L54.8511 445.399Z" fill="#2F2E41"/>
<path d="M261.912 430.117C261.912 430.117 254.539 458.134 257.22 459.57C259.901 461.007 265.264 465.317 273.307 465.317C278.06 465.317 285.153 468.076 290.161 470.334C296 473.007 302.343 474.176 308.679 473.748C312.901 473.436 316.491 472.375 316.206 469.628C315.536 463.162 302.8 461.726 302.8 461.726L289.394 443.048C289.394 443.048 287.048 431.195 285.037 431.195C283.942 431.25 282.866 430.866 282.021 430.117L261.912 430.117Z" fill="#2F2E41"/>
<path d="M186.562 168.992C188.587 167.404 190.926 166.337 193.398 165.874C195.869 165.411 198.408 165.565 200.815 166.323L201.399 166.516C212.666 170.237 218.658 184.18 214.782 197.659V197.659L211.007 196.412L211.827 191.237L209.504 195.915L187.113 188.521L186.447 183.693L185.706 188.056L181.301 186.601C176.1 196.862 175.908 208.778 180.725 222.347L173.221 219.869L171.889 210.215L170.407 218.94L156.104 214.216L158.855 193.931C163.023 179.436 174.416 169.739 186.562 168.992Z" fill="#2F2E41"/>
<path d="M449.94 37.7728H279.037V380.579H449.94V37.7728Z" fill="#F2F2F2"/>
<path d="M491.169 381.291H278.372V0H491.169V381.291ZM279.702 379.866H489.839V1.42539H279.702V379.866Z" fill="#3F3D56"/>
<path d="M670 472.403H29.2727V474H670V472.403Z" fill="#3F3D56"/>
<path d="M465.234 200.267H304.306V42.049H465.234V200.267ZM305.636 198.842H463.904V43.4743H305.636V198.842Z" fill="#3F3D56"/>
<path d="M305.441 158.317L304.501 157.309L354.657 103.556L384.105 135.117L463.767 49.7411L464.707 50.7488L384.105 137.132L354.657 105.571L305.441 158.317Z" fill="#3F3D56"/>
<path d="M354.846 115.456C360.355 115.456 364.821 110.67 364.821 104.766C364.821 98.8619 360.355 94.0756 354.846 94.0756C349.337 94.0756 344.871 98.8619 344.871 104.766C344.871 110.67 349.337 115.456 354.846 115.456Z" fill="#3901F9"/>
<path d="M384.77 144.677C390.279 144.677 394.745 139.891 394.745 133.987C394.745 128.082 390.279 123.296 384.77 123.296C379.261 123.296 374.795 128.082 374.795 133.987C374.795 139.891 379.261 144.677 384.77 144.677Z" fill="#3901F9"/>
<path d="M464.57 60.579C470.079 60.579 474.545 55.7927 474.545 49.8886C474.545 43.9844 470.079 39.1982 464.57 39.1982C459.061 39.1982 454.595 43.9844 454.595 49.8886C454.595 55.7927 459.061 60.579 464.57 60.579Z" fill="#3901F9"/>
<path d="M445.285 244.454H324.256V257.283H445.285V244.454Z" fill="#3F3D56"/>
<path d="M412.7 349.933H356.841V290.067H394.745V291.492H358.171V348.507H411.37V320H412.7V349.933Z" fill="#3F3D56"/>
<path d="M384.482 334.318L372.667 317.434L376.923 314.013L385.058 325.637L422.457 285.557L426.218 289.588L384.482 334.318Z" fill="#3901F9"/>
<path d="M195.697 307.928C195.697 307.928 183.625 290.676 158.977 300.919L154.45 314.397C154.45 314.397 128.292 336.5 142.88 370.464L141.874 421.14L137.85 435.695L64.9116 429.226L62.3965 454.025L75.4751 455.103C75.4751 455.103 149.419 486.371 160.989 466.964C172.558 447.556 196.703 371.003 196.703 371.003L259.334 381.054C259.334 381.054 257.501 402.061 259.513 404.756C261.525 407.452 260.519 418.773 261.525 420.929C262.531 423.086 261.692 428.692 261.692 428.692L282.473 427.956V417.174C282.473 417.174 284.988 402.618 284.988 398.844C284.988 395.071 300.078 345.473 273.921 341.16C247.764 336.847 202.74 328.953 202.74 328.953L195.697 307.928Z" fill="#2F2E41"/>
<path d="M172.195 223.662C171.56 221.926 170.592 220.352 169.354 219.041C168.116 217.729 166.636 216.71 165.009 216.049C163.382 215.388 161.644 215.099 159.906 215.201C158.168 215.302 156.47 215.793 154.92 216.641C150.764 218.888 146.92 223.349 147.156 232.183C147.659 251.052 148.665 292.024 148.665 292.024L170.798 357.256C170.798 357.256 165.265 400.923 179.852 396.61C194.44 392.298 184.379 355.638 184.379 355.638L167.277 293.641L171.301 244.583C171.301 244.583 175.62 233.3 172.195 223.662Z" fill="#FFB9B9"/>
</g>
<defs>
<clipPath id="clip0">
<rect width="670" height="474" fill="white"/>
</clipPath>
</defs>
</svg>
